<svg width="116" height="91" viewBox="0 0 116 91" fill="none" xmlns="http://www.w3.org/2000/svg">
<path fill-rule="evenodd" clip-rule="evenodd" d="M107.822 32.0193C107.822 32.0193 96.8522 15.3699 96.5555 15.2529L80.7546 9.03323C80.4145 8.89998 59.8623 16.4737 59.8623 16.4737C59.7999 16.4937 59.741 16.5212 59.6856 16.5561L40.6938 26.9583C39.0671 27.835 40.1967 30.3354 41.9312 29.7093L53.4692 25.7445C54.6819 25.3069 55.8492 26.5224 55.3753 27.7371L54.1811 30.7918C54.0652 31.1011 53.8447 31.3589 53.564 31.5261L27.4375 46.357C25.8458 47.3086 27.0928 49.7725 28.8001 49.0496L53.3291 38.4279C54.1018 38.1043 54.9982 38.4887 55.3063 39.2842L56.0852 41.2825C56.3587 41.9847 56.0759 42.7821 55.4266 43.1394L12.8057 65.9593C11.1492 66.8681 12.3909 69.4166 14.1241 68.6725L57.6077 49.4347C58.3769 49.1036 59.5922 50.2876 59.5922 50.2876C59.6787 50.5117 60.6583 51.4591 60.6583 51.4591C61.4354 52.1454 61.3182 53.3943 60.4324 53.8984L37.1384 66.6888C35.5327 67.6104 36.7247 70.0908 38.4495 69.4054L66.6596 57.852C67.1818 57.6451 67.7703 57.7537 68.1965 58.1294L71.3298 60.9084L71.4027 60.9109L60.6918 67.0157C59.0686 67.8999 60.2056 70.3968 61.9366 69.7632L85.9322 61.2865C86.0167 61.2562 101.809 51.6069 101.922 51.2717C101.9 51.282 108.077 32.4113 107.822 32.0193Z" fill="white"/>
<path fill-rule="evenodd" clip-rule="evenodd" d="M88.9691 34.562L81.4682 43.2642L73.0699 35.8643L79.122 25.9775L88.9691 34.562Z" fill="#2F56A2"/>
<path fill-rule="evenodd" clip-rule="evenodd" d="M80.2547 15.7119L79.1218 25.977L64.6729 21.5615L80.2547 15.7119Z" fill="#2F56A2"/>
<path fill-rule="evenodd" clip-rule="evenodd" d="M81.4684 43.2637L96.4438 47.443L84.2776 54.773L81.4684 43.2637Z" fill="#4480C2"/>
<path fill-rule="evenodd" clip-rule="evenodd" d="M96.4435 47.4433L81.468 43.2641L88.9689 34.5619L101.195 33.4767L96.4435 47.4433Z" fill="#4795D1"/>
<path fill-rule="evenodd" clip-rule="evenodd" d="M101.195 33.4768L88.9691 34.5621L79.1221 25.9775L92.8473 20.6651L101.195 33.4768Z" fill="#5BC3ED"/>
<path fill-rule="evenodd" clip-rule="evenodd" d="M92.8463 20.6643L79.1211 25.9768L80.2539 15.7116L92.8463 20.6643Z" fill="#4480C2"/>
<path fill-rule="evenodd" clip-rule="evenodd" d="M64.673 21.5615L79.1219 25.977L73.0698 35.8638L59.9349 33.6712L64.673 21.5615Z" fill="#554897"/>
<path fill-rule="evenodd" clip-rule="evenodd" d="M59.9344 33.6711L73.0693 35.8637L65.068 46.8778L59.9344 33.6711Z" fill="#954D98"/>
<path fill-rule="evenodd" clip-rule="evenodd" d="M65.0687 46.878L73.07 35.8639L81.4683 43.2638L73.7059 54.5404L65.0687 46.878Z" fill="#554897"/>
<path fill-rule="evenodd" clip-rule="evenodd" d="M73.705 54.5406L81.4674 43.264L84.2767 54.7733L73.705 54.5406Z" fill="#2F56A2"/>
</svg>
