<svg width="135" height="109" viewBox="0 0 135 109" fill="none" xmlns="http://www.w3.org/2000/svg">
<path fill-rule="evenodd" clip-rule="evenodd" d="M116.822 32.0193C116.822 32.0193 105.852 15.3699 105.556 15.2529L89.7546 9.03323C89.4145 8.89998 68.8623 16.4737 68.8623 16.4737C68.7999 16.4937 68.741 16.5212 68.6856 16.5561L49.6938 26.9583C48.0671 27.835 49.1967 30.3354 50.9312 29.7093L62.4692 25.7445C63.6819 25.3069 64.8492 26.5224 64.3753 27.7371L63.1811 30.7918C63.0652 31.1011 62.8447 31.3589 62.564 31.5261L36.4375 46.357C34.8458 47.3086 36.0928 49.7725 37.8001 49.0496L62.3291 38.4279C63.1018 38.1043 63.9982 38.4887 64.3063 39.2842L65.0852 41.2825C65.3587 41.9847 65.0759 42.7821 64.4266 43.1394L21.8057 65.9593C20.1492 66.8681 21.3909 69.4166 23.1241 68.6725L66.6077 49.4347C67.3769 49.1036 68.5922 50.2876 68.5922 50.2876C68.6787 50.5117 69.6583 51.4591 69.6583 51.4591C70.4354 52.1454 70.3182 53.3943 69.4324 53.8984L46.1384 66.6888C44.5327 67.6104 45.7247 70.0908 47.4495 69.4054L75.6596 57.852C76.1818 57.6451 76.7703 57.7537 77.1965 58.1294L80.3298 60.9084L80.4027 60.9109L69.6918 67.0157C68.0686 67.8999 69.2056 70.3968 70.9366 69.7632L94.9322 61.2865C95.0167 61.2562 110.809 51.6069 110.922 51.2717C110.9 51.282 117.077 32.4113 116.822 32.0193Z" fill="white"/>
<path fill-rule="evenodd" clip-rule="evenodd" d="M97.9691 34.562L90.4682 43.2642L82.0699 35.8643L88.122 25.9775L97.9691 34.562Z" fill="#2F56A2"/>
<path fill-rule="evenodd" clip-rule="evenodd" d="M89.2547 15.7119L88.1218 25.977L73.6729 21.5615L89.2547 15.7119Z" fill="#2F56A2"/>
<path fill-rule="evenodd" clip-rule="evenodd" d="M90.4684 43.2637L105.444 47.443L93.2776 54.773L90.4684 43.2637Z" fill="#4480C2"/>
<path fill-rule="evenodd" clip-rule="evenodd" d="M105.443 47.4433L90.468 43.2641L97.9689 34.5619L110.195 33.4767L105.443 47.4433Z" fill="#4795D1"/>
<path fill-rule="evenodd" clip-rule="evenodd" d="M110.195 33.4768L97.9691 34.5621L88.1221 25.9775L101.847 20.6651L110.195 33.4768Z" fill="#5BC3ED"/>
<path fill-rule="evenodd" clip-rule="evenodd" d="M101.846 20.6643L88.1211 25.9768L89.2539 15.7116L101.846 20.6643Z" fill="#4480C2"/>
<path fill-rule="evenodd" clip-rule="evenodd" d="M73.673 21.5615L88.1219 25.977L82.0698 35.8638L68.9349 33.6712L73.673 21.5615Z" fill="#554897"/>
<path fill-rule="evenodd" clip-rule="evenodd" d="M68.9344 33.6711L82.0693 35.8637L74.068 46.8778L68.9344 33.6711Z" fill="#954D98"/>
<path fill-rule="evenodd" clip-rule="evenodd" d="M74.0687 46.878L82.07 35.8639L90.4683 43.2638L82.7059 54.5404L74.0687 46.878Z" fill="#554897"/>
<path fill-rule="evenodd" clip-rule="evenodd" d="M82.705 54.5406L90.4674 43.264L93.2767 54.7733L82.705 54.5406Z" fill="#2F56A2"/>
<path d="M5.97413 90.4004C7.78414 90.4004 9.31654 90.5754 10.5713 90.9255C11.8261 91.2755 12.8422 91.8062 13.6139 92.5289C14.3857 93.2515 14.9464 94.1605 15.2907 95.2502C15.6349 96.3398 15.8015 97.6271 15.8015 99.1063C15.8015 100.58 15.6238 101.867 15.274 102.962C14.9242 104.058 14.3579 104.961 13.5751 105.672C12.7922 106.384 11.7762 106.915 10.5325 107.265C9.28323 107.615 7.76193 107.79 5.96858 107.79H0V90.4004H5.97413ZM5.97413 105.277C7.36217 105.277 8.50037 105.17 9.39982 104.955C10.2937 104.741 11.0044 104.385 11.5263 103.9C12.0482 103.408 12.4091 102.776 12.6034 101.997C12.7978 101.218 12.8977 100.258 12.8977 99.1119C12.8977 98.0166 12.7978 97.0794 12.6034 96.3003C12.4091 95.5212 12.0482 94.8776 11.5263 94.3751C11.0044 93.8669 10.2937 93.5 9.39982 93.2685C8.50037 93.037 7.36217 92.9184 5.97413 92.9184H2.89268V105.255L5.97413 105.277Z" fill="white"/>
<path d="M31.7255 102.687H21.2596C21.4873 103.584 21.9426 104.301 22.6144 104.849C23.2917 105.397 24.0801 105.668 24.974 105.668C25.657 105.668 26.2844 105.509 26.8562 105.193C27.4281 104.877 27.8834 104.431 28.2276 103.85L30.7205 105.041C30.1487 105.972 29.3769 106.723 28.3942 107.305C27.417 107.886 26.2733 108.174 24.9685 108.174C23.958 108.174 23.0419 107.988 22.2146 107.615C21.3929 107.243 20.6878 106.752 20.0992 106.147C19.5107 105.543 19.0554 104.843 18.7279 104.059C18.4003 103.274 18.2393 102.455 18.2393 101.608C18.2393 100.795 18.4003 99.9991 18.7167 99.22C19.0332 98.4409 19.4885 97.7464 20.0715 97.131C20.66 96.5156 21.3651 96.0188 22.198 95.6405C23.0308 95.2623 23.9524 95.0703 24.9629 95.0703C25.9734 95.0703 26.8951 95.2623 27.7279 95.6405C28.5607 96.0245 29.2659 96.5213 29.8544 97.131C30.4429 97.7464 30.8982 98.4409 31.2258 99.22C31.5534 99.9991 31.7144 100.795 31.7144 101.608V102.687H31.7255ZM28.6718 100.4C28.4275 99.5023 27.9667 98.8135 27.2893 98.3223C26.6119 97.8311 25.8402 97.5884 24.9796 97.5884C24.0968 97.5884 23.325 97.8311 22.6532 98.3223C21.987 98.8135 21.5372 99.5023 21.3096 100.4H28.6718Z" fill="white"/>
<path d="M40.4585 93.4606C40.2142 93.7259 40.092 94.1719 40.092 94.8043V95.4761H44.0563V97.966H40.092V105.131H43.2457V107.818H34.1956V105.131H37.1771V97.966H33.9014V95.4761H37.1771V94.8043C37.1771 93.1952 37.538 92.0547 38.2654 91.3829C38.9927 90.711 40.1864 90.3779 41.8465 90.3779H44.7836V93.0654H41.8465C41.1636 93.0654 40.7028 93.1952 40.4585 93.4606Z" fill="white"/>
<path d="M52.6844 105.198H56.0379V107.784H46.5215V105.198H49.775V98.0844H46.9601V95.476H52.6844V105.198ZM49.775 90.4004H52.6844V93.2346H49.775V90.4004Z" fill="white"/>
<path d="M67.5587 97.9381H76.0202V107.784H73.1109V105.87H73.0609C72.1337 107.378 70.3515 108.134 67.7309 108.134C66.3928 108.134 65.1657 107.931 64.0498 107.525C62.9338 107.118 61.9733 106.531 61.1737 105.758C60.3742 104.984 59.7524 104.047 59.3027 102.935C58.8529 101.822 58.6309 100.558 58.6309 99.1293C58.6309 97.7687 58.8807 96.5322 59.3748 95.4087C59.8745 94.2908 60.5464 93.3254 61.4069 92.5237C62.262 91.722 63.2614 91.0953 64.4051 90.6606C65.5489 90.2202 66.7703 90 68.0751 90C69.5409 90 70.7956 90.2145 71.8394 90.6493C72.8833 91.0784 73.8216 91.7107 74.6544 92.5406L72.6723 94.2062C72.0504 93.6246 71.3509 93.2012 70.568 92.9246C69.7852 92.6536 68.9523 92.5124 68.0751 92.5124C67.1756 92.5124 66.3373 92.6479 65.5433 92.9246C64.7549 93.1956 64.0609 93.6077 63.4612 94.1553C62.8672 94.703 62.3952 95.3918 62.0565 96.2217C61.7123 97.0517 61.5457 98.0228 61.5457 99.1293C61.5457 100.225 61.7179 101.179 62.0565 101.992C62.4008 102.805 62.8672 103.482 63.4612 104.019C64.0553 104.555 64.7493 104.962 65.5433 105.227C66.3317 105.492 67.1756 105.622 68.0751 105.622C69.2966 105.622 70.3182 105.43 71.1343 105.052C71.9505 104.668 72.6168 104.081 73.1387 103.285V100.225H67.5643V97.9381H67.5587Z" fill="white"/>
<path d="M94.5807 105.278V107.791H89.4227V106.374H89.3728C89.0452 106.904 88.5344 107.334 87.8293 107.667C87.1297 108 86.2913 108.163 85.3086 108.163C84.2981 108.163 83.382 107.977 82.5714 107.605C81.7552 107.232 81.0612 106.741 80.4948 106.137C79.923 105.533 79.4843 104.838 79.1734 104.048C78.8625 103.263 78.707 102.444 78.707 101.597C78.707 100.801 78.8625 100.017 79.1734 99.2317C79.4843 98.4526 79.923 97.7582 80.4948 97.1428C81.0667 96.5274 81.7607 96.0305 82.5714 95.6523C83.3875 95.274 84.2981 95.082 85.3086 95.082C85.7305 95.082 86.1581 95.1328 86.58 95.2288C87.002 95.3304 87.3962 95.4603 87.7515 95.624C88.1124 95.7878 88.4289 95.991 88.7065 96.2225C88.9841 96.454 89.1951 96.6967 89.345 96.9452H89.4172V95.4772H92.1322V105.278H94.5807ZM85.3141 105.651C85.8527 105.651 86.3579 105.555 86.8299 105.363C87.3018 105.171 87.7182 104.9 88.0791 104.544C88.44 104.189 88.7231 103.76 88.9341 103.263C89.1451 102.766 89.2506 102.213 89.2506 101.597C89.2506 100.982 89.1451 100.429 88.9341 99.9318C88.7231 99.435 88.4344 99.0115 88.068 98.6615C87.7015 98.3115 87.2796 98.0461 86.8077 97.8654C86.3357 97.6848 85.836 97.5944 85.3141 97.5944C84.7756 97.5944 84.2814 97.6848 83.8317 97.8654C83.382 98.0461 82.9933 98.3115 82.6602 98.6615C82.3271 99.0115 82.0661 99.435 81.8773 99.9318C81.6886 100.429 81.5942 100.988 81.5942 101.597C81.5942 102.196 81.6886 102.743 81.8773 103.24C82.0661 103.737 82.3271 104.166 82.6602 104.522C82.9933 104.878 83.3875 105.154 83.8317 105.357C84.2814 105.549 84.7756 105.651 85.3141 105.651Z" fill="white"/>
<path d="M117.184 96.6051C118.034 97.6101 118.456 99.1401 118.456 101.195V107.784H115.568V101.619C115.568 100.173 115.352 99.1457 114.919 98.536C114.486 97.9206 113.747 97.6157 112.703 97.6157C111.71 97.6157 110.916 97.9375 110.322 98.5868C109.727 99.2361 109.428 100.264 109.428 101.669V107.79H106.541V101.619C106.541 100.224 106.346 99.2078 105.952 98.5699C105.558 97.9319 104.842 97.6101 103.798 97.6101C103.292 97.6101 102.821 97.7117 102.382 97.9093C101.943 98.1069 101.56 98.3892 101.233 98.7562C100.905 99.1231 100.65 99.5635 100.461 100.089C100.272 100.614 100.178 101.206 100.178 101.867V107.784H97.3184V95.4759H100.083V97.5875H100.161C100.422 96.9269 100.922 96.3454 101.666 95.8486C102.41 95.3517 103.315 95.1033 104.392 95.1033C106.574 95.1033 108.051 96.0405 108.817 97.9149H108.917C109.045 97.531 109.244 97.1753 109.505 96.8309C109.766 96.4922 110.088 96.193 110.471 95.9332C110.855 95.6735 111.293 95.4759 111.793 95.3235C112.293 95.1767 112.842 95.0977 113.442 95.0977H113.492C115.102 95.1033 116.335 95.6058 117.184 96.6051Z" fill="white"/>
<path d="M134.89 102.687H124.424C124.652 103.584 125.107 104.301 125.785 104.849C126.462 105.397 127.245 105.668 128.144 105.668C128.827 105.668 129.455 105.509 130.026 105.193C130.598 104.877 131.054 104.431 131.398 103.85L133.891 105.041C133.319 105.972 132.547 106.723 131.57 107.305C130.593 107.886 129.449 108.174 128.144 108.174C127.134 108.174 126.218 107.988 125.39 107.615C124.569 107.243 123.864 106.752 123.275 106.147C122.686 105.543 122.231 104.843 121.904 104.059C121.576 103.274 121.415 102.455 121.415 101.608C121.415 100.795 121.576 99.9991 121.893 99.22C122.209 98.4409 122.664 97.7464 123.253 97.131C123.841 96.5156 124.546 96.0188 125.379 95.6405C126.212 95.2623 127.134 95.0703 128.144 95.0703C129.155 95.0703 130.076 95.2623 130.909 95.6405C131.742 96.0245 132.453 96.5213 133.036 97.131C133.624 97.7464 134.08 98.4409 134.407 99.22C134.735 99.9991 134.896 100.795 134.896 101.608V102.687H134.89ZM131.831 100.4C131.587 99.5023 131.126 98.8135 130.448 98.3223C129.771 97.8311 128.999 97.5884 128.139 97.5884C127.256 97.5884 126.484 97.8311 125.812 98.3223C125.146 98.8135 124.696 99.5023 124.469 100.4H131.831Z" fill="white"/>
</svg>
