<svg width="135" height="19" viewBox="0 0 135 19" fill="none" xmlns="http://www.w3.org/2000/svg">
<path d="M5.97413 0.400391C7.78414 0.400391 9.31654 0.575412 10.5713 0.925455C11.8261 1.2755 12.8422 1.80621 13.6139 2.52888C14.3857 3.25154 14.9464 4.16053 15.2907 5.25018C15.6349 6.33982 15.8015 7.62708 15.8015 9.10629C15.8015 10.5799 15.6238 11.8671 15.274 12.9624C14.9242 14.0577 14.3579 14.961 13.5751 15.6724C12.7922 16.3838 11.7762 16.9145 10.5325 17.2645C9.28323 17.6146 7.76193 17.7896 5.96858 17.7896H0V0.400391H5.97413ZM5.97413 15.2772C7.36217 15.2772 8.50037 15.1699 9.39982 14.9554C10.2937 14.7408 11.0044 14.3852 11.5263 13.8996C12.0482 13.4084 12.4091 12.7761 12.6034 11.997C12.7978 11.2178 12.8977 10.258 12.8977 9.11194C12.8977 8.01664 12.7978 7.07943 12.6034 6.3003C12.4091 5.52118 12.0482 4.87755 11.5263 4.37507C11.0044 3.86694 10.2937 3.49996 9.39982 3.26848C8.50037 3.037 7.36217 2.91844 5.97413 2.91844H2.89268V15.2546L5.97413 15.2772Z" fill="white"/>
<path d="M31.7255 12.6866H21.2596C21.4873 13.5843 21.9426 14.3013 22.6144 14.8489C23.2917 15.3966 24.0801 15.6676 24.974 15.6676C25.657 15.6676 26.2844 15.5095 26.8562 15.1933C27.4281 14.8772 27.8834 14.4311 28.2276 13.8496L30.7205 15.0409C30.1487 15.9724 29.3769 16.7233 28.3942 17.3049C27.417 17.8864 26.2733 18.1743 24.9685 18.1743C23.958 18.1743 23.0419 17.988 22.2146 17.6154C21.3929 17.2428 20.6878 16.7516 20.0992 16.1475C19.5107 15.5434 19.0554 14.8433 18.7279 14.0585C18.4003 13.2737 18.2393 12.4551 18.2393 11.6082C18.2393 10.7952 18.4003 9.99914 18.7167 9.22001C19.0332 8.44088 19.4885 7.74644 20.0715 7.13105C20.66 6.51565 21.3651 6.01881 22.198 5.64054C23.0308 5.26227 23.9524 5.07031 24.9629 5.07031C25.9734 5.07031 26.8951 5.26227 27.7279 5.64054C28.5607 6.02446 29.2659 6.52129 29.8544 7.13105C30.4429 7.74644 30.8982 8.44088 31.2258 9.22001C31.5534 9.99914 31.7144 10.7952 31.7144 11.6082V12.6866H31.7255ZM28.6718 10.4C28.4275 9.5023 27.9667 8.81351 27.2893 8.32232C26.6119 7.83113 25.8402 7.58836 24.9796 7.58836C24.0968 7.58836 23.325 7.83113 22.6532 8.32232C21.987 8.81351 21.5372 9.5023 21.3096 10.4H28.6718Z" fill="white"/>
<path d="M40.4585 3.46056C40.2142 3.72592 40.092 4.17194 40.092 4.80428V5.47613H44.0563V7.96595H40.092V15.1305H43.2457V17.818H34.1956V15.1305H37.1771V7.96595H33.9014V5.47613H37.1771V4.80428C37.1771 3.19521 37.538 2.05475 38.2654 1.38289C38.9927 0.711035 40.1864 0.37793 41.8465 0.37793H44.7836V3.06536H41.8465C41.1636 3.06536 40.7028 3.19521 40.4585 3.46056Z" fill="white"/>
<path d="M52.6844 15.1982H56.0379V17.784H46.5215V15.1982H49.775V8.08439H46.9601V5.47601H52.6844V15.1982ZM49.775 0.400391H52.6844V3.23461H49.775V0.400391Z" fill="white"/>
<path d="M67.5587 7.93807H76.0202V17.7844H73.1109V15.8705H73.0609C72.1337 17.3779 70.3515 18.1345 67.7309 18.1345C66.3928 18.1345 65.1657 17.9312 64.0498 17.5247C62.9338 17.1182 61.9733 16.5311 61.1737 15.7576C60.3742 14.9841 59.7524 14.0469 59.3027 12.9346C58.8529 11.8224 58.6309 10.5577 58.6309 9.12934C58.6309 7.76869 58.8807 6.53225 59.3748 5.40873C59.8745 4.29085 60.5464 3.32541 61.4069 2.5237C62.262 1.72198 63.2614 1.0953 64.4051 0.660565C65.5489 0.220188 66.7703 0 68.0751 0C69.5409 0 70.7956 0.214542 71.8394 0.649273C72.8833 1.07836 73.8216 1.71069 74.6544 2.54063L72.6723 4.20616C72.0504 3.62464 71.3509 3.2012 70.568 2.92455C69.7852 2.65355 68.9523 2.5124 68.0751 2.5124C67.1756 2.5124 66.3373 2.64791 65.5433 2.92455C64.7549 3.19555 64.0609 3.6077 63.4612 4.15535C62.8672 4.70299 62.3952 5.39179 62.0565 6.22173C61.7123 7.05167 61.5457 8.02275 61.5457 9.12934C61.5457 10.2246 61.7179 11.1788 62.0565 11.9918C62.4008 12.8048 62.8672 13.4823 63.4612 14.0186C64.0553 14.555 64.7493 14.9615 65.5433 15.2269C66.3317 15.4922 67.1756 15.6221 68.0751 15.6221C69.2966 15.6221 70.3182 15.4301 71.1343 15.0518C71.9505 14.6679 72.6168 14.0808 73.1387 13.2847V10.2246H67.5643V7.93807H67.5587Z" fill="white"/>
<path d="M94.5807 15.2784V17.7908H89.4227V16.3737H89.3728C89.0452 16.9044 88.5344 17.3335 87.8293 17.6666C87.1297 17.9997 86.2913 18.1635 85.3086 18.1635C84.2981 18.1635 83.382 17.9772 82.5714 17.6045C81.7552 17.2319 81.0612 16.7407 80.4948 16.1366C79.923 15.5325 79.4843 14.8381 79.1734 14.0476C78.8625 13.2629 78.707 12.4442 78.707 11.5973C78.707 10.8013 78.8625 10.0165 79.1734 9.23173C79.4843 8.4526 79.923 7.75816 80.4948 7.14277C81.0667 6.52737 81.7607 6.03053 82.5714 5.65226C83.3875 5.27399 84.2981 5.08203 85.3086 5.08203C85.7305 5.08203 86.1581 5.13284 86.58 5.22882C87.002 5.33045 87.3962 5.4603 87.7515 5.62403C88.1124 5.78776 88.4289 5.99101 88.7065 6.22249C88.9841 6.45397 89.1951 6.69674 89.345 6.94516H89.4172V5.47724H92.1322V15.2784H94.5807ZM85.3141 15.6511C85.8527 15.6511 86.3579 15.5551 86.8299 15.3631C87.3018 15.1712 87.7182 14.9002 88.0791 14.5445C88.44 14.1888 88.7231 13.7597 88.9341 13.2629C89.1451 12.766 89.2506 12.2127 89.2506 11.5973C89.2506 10.9819 89.1451 10.4287 88.9341 9.93182C88.7231 9.43498 88.4344 9.01154 88.068 8.6615C87.7015 8.31146 87.2796 8.0461 86.8077 7.86544C86.3357 7.68477 85.836 7.59443 85.3141 7.59443C84.7756 7.59443 84.2814 7.68477 83.8317 7.86544C83.382 8.0461 82.9933 8.31146 82.6602 8.6615C82.3271 9.01154 82.0661 9.43498 81.8773 9.93182C81.6886 10.4287 81.5942 10.9876 81.5942 11.5973C81.5942 12.1958 81.6886 12.7434 81.8773 13.2403C82.0661 13.7371 82.3271 14.1662 82.6602 14.5219C82.9933 14.8776 83.3875 15.1542 83.8317 15.3575C84.2814 15.5494 84.7756 15.6511 85.3141 15.6511Z" fill="white"/>
<path d="M117.184 6.6051C118.034 7.61006 118.456 9.14009 118.456 11.1952V17.7839H115.568V11.6186C115.568 10.1733 115.352 9.14573 114.919 8.53598C114.486 7.92058 113.747 7.61571 112.703 7.61571C111.71 7.61571 110.916 7.93752 110.322 8.58679C109.727 9.23606 109.428 10.2636 109.428 11.6694V17.7895H106.541V11.6186C106.541 10.2241 106.346 9.20784 105.952 8.56986C105.558 7.93187 104.842 7.61006 103.798 7.61006C103.292 7.61006 102.821 7.71168 102.382 7.90929C101.943 8.10689 101.56 8.38919 101.233 8.75617C100.905 9.12315 100.65 9.56352 100.461 10.0886C100.272 10.6137 100.178 11.2065 100.178 11.867V17.7839H97.3184V5.47593H100.083V7.58748H100.161C100.422 6.92691 100.922 6.34539 101.666 5.84855C102.41 5.35172 103.315 5.1033 104.392 5.1033C106.574 5.1033 108.051 6.04051 108.817 7.91493H108.917C109.045 7.53102 109.244 7.17533 109.505 6.83093C109.766 6.49218 110.088 6.19295 110.471 5.93324C110.855 5.67353 111.293 5.47593 111.793 5.32349C112.293 5.1767 112.842 5.09766 113.442 5.09766H113.492C115.102 5.1033 116.335 5.60578 117.184 6.6051Z" fill="white"/>
<path d="M134.89 12.6866H124.424C124.652 13.5843 125.107 14.3013 125.785 14.8489C126.462 15.3966 127.245 15.6676 128.144 15.6676C128.827 15.6676 129.455 15.5095 130.026 15.1933C130.598 14.8772 131.054 14.4311 131.398 13.8496L133.891 15.0409C133.319 15.9724 132.547 16.7233 131.57 17.3049C130.593 17.8864 129.449 18.1743 128.144 18.1743C127.134 18.1743 126.218 17.988 125.39 17.6154C124.569 17.2428 123.864 16.7516 123.275 16.1475C122.686 15.5434 122.231 14.8433 121.904 14.0585C121.576 13.2737 121.415 12.4551 121.415 11.6082C121.415 10.7952 121.576 9.99914 121.893 9.22001C122.209 8.44088 122.664 7.74644 123.253 7.13105C123.841 6.51565 124.546 6.01881 125.379 5.64054C126.212 5.26227 127.134 5.07031 128.144 5.07031C129.155 5.07031 130.076 5.26227 130.909 5.64054C131.742 6.02446 132.453 6.52129 133.036 7.13105C133.624 7.74644 134.08 8.44088 134.407 9.22001C134.735 9.99914 134.896 10.7952 134.896 11.6082V12.6866H134.89ZM131.831 10.4C131.587 9.5023 131.126 8.81351 130.448 8.32232C129.771 7.83113 128.999 7.58836 128.139 7.58836C127.256 7.58836 126.484 7.83113 125.812 8.32232C125.146 8.81351 124.696 9.5023 124.469 10.4H131.831Z" fill="white"/>
</svg>
